<svg xmlns="http://www.w3.org/2000/svg" xmlns:xlink="http://www.w3.org/1999/xlink" width="83" height="60" viewBox="0 0 83 60">
  <defs>
    <filter id="Base" x="0" y="0" width="83" height="60" filterUnits="userSpaceOnUse">
      <feOffset dy="1" input="SourceAlpha"/>
      <feGaussianBlur stdDeviation="1.5" result="blur"/>
      <feFlood flood-opacity="0.702"/>
      <feComposite operator="in" in2="blur"/>
      <feComposite in="SourceGraphic"/>
    </filter>
    <filter id="Logo" x="6.377" y="14.202" width="70.187" height="30.179" filterUnits="userSpaceOnUse">
      <feOffset dy="-1" input="SourceAlpha"/>
      <feGaussianBlur result="blur-2"/>
      <feFlood flood-opacity="0.161"/>
      <feComposite operator="in" in2="blur-2"/>
      <feComposite in="SourceGraphic"/>
    </filter>
    <linearGradient id="linear-gradient" x1="0.501" y1="10.488" x2="0.501" y2="-9.553" gradientUnits="objectBoundingBox">
      <stop offset="0" stop-color="#fff" stop-opacity="0"/>
      <stop offset="1" stop-color="#fff"/>
    </linearGradient>
  </defs>
  <g id="Group_142" data-name="Group 142" transform="translate(-917.543 -4271.5)">
    <g transform="matrix(1, 0, 0, 1, 917.54, 4271.5)" filter="url(#Base)">
      <rect id="Base-2" data-name="Base" width="74" height="51" rx="2.6" transform="translate(4.5 3.5)" fill="#0088cb"/>
    </g>
    <g id="Logo-2" data-name="Logo" transform="translate(923.92 4286.702)">
      <g transform="matrix(1, 0, 0, 1, -6.38, -15.2)" filter="url(#Logo)">
        <path id="Logo-3" data-name="Logo" d="M26,29.172l-1.644-2.1-1.742,2.1H11.778V15.534H22.825l1.584,2.07,1.693-2.07h7.277a4.268,4.268,0,0,1,2.889.791v-.791h6.724a4.853,4.853,0,0,1,2.763.791v-.791h9.412v.791a3.579,3.579,0,0,1,2.447-.791h5.61v.791a3.923,3.923,0,0,1,2.565-.791h4.4v1.928H66.105c-2.151,0-3.545,1.479-3.545,2.884,0,3.065,2.4,2.924,4.324,3a.96.96,0,0,1,.723.214.845.845,0,0,1,.249.642.9.9,0,0,1-.242.632,1.076,1.076,0,0,1-.83.239h-3.94v2.077H66.8c1.312,0,2.888-.416,3.386-1.238v2.64a6.413,6.413,0,0,1-3.005.623h-5.31v-.865a4.371,4.371,0,0,1-2.788.865H42.345V26.048c0-.382-.035-.4-.374-.4H41.7v3.523h-5.51V26.013a7.014,7.014,0,0,1-3.03.475h-.658v2.691Zm28.805-2.024H58.8c2.067,0,2.805-.972,2.805-3.056a2.918,2.918,0,0,0-.612-2.052,2.138,2.138,0,0,0-1.928-.779l-1.1-.033a2.12,2.12,0,0,1-.8-.109.743.743,0,0,1-.449-.723.775.775,0,0,1,.309-.7,1.248,1.248,0,0,1,.821-.175h3.345V17.462H57.5a2.7,2.7,0,0,0-2.93,2.884c0,3.065,2.4,2.924,4.316,3a.993.993,0,0,1,.73.214.887.887,0,0,1,.251.642.92.92,0,0,1-.242.632,1.111,1.111,0,0,1-.837.239H54.809Zm-7.284,0h5.721V25.26l-3.738-.009V23.325h3.621V21.348H49.508V19.466h3.738v-2H47.525Zm-5.314-3.537c.747,0,1.2.082,1.5.43a3.171,3.171,0,0,1,.332,1.895v1.212H46.1V25.228a3.109,3.109,0,0,0-.339-1.768,2.274,2.274,0,0,0-1-.814,2.727,2.727,0,0,0,1.453-2.577,2.338,2.338,0,0,0-1.054-2.151,4.561,4.561,0,0,0-2.465-.456H38.2v9.685h1.824V23.611Zm-15.32,3.537h3.747V23.9H33.2c1.791,0,3.568-.554,3.568-3.245s-1.828-3.191-3.454-3.191H27l-2.607,3.175-2.521-3.175H13.629v9.685h8.117l2.623-3.205Zm-1.2-4.826L28.716,18.5v7.766Zm-10.136,2.93V23.325h3.733V21.348H15.552V19.466H20.69l2.36,2.823-2.458,2.963ZM70,22.039c-.456-.53-1.81-.747-2.931-.779l-1.11-.033a2.066,2.066,0,0,1-.789-.111.729.729,0,0,1-.449-.721.79.79,0,0,1,.3-.7,1.28,1.28,0,0,1,.83-.175h4.34v2.756A1.2,1.2,0,0,0,70,22.039Zm-39.359-.107V19.466H33.31a1.1,1.1,0,0,1,1.254,1.188,1.162,1.162,0,0,1-1.277,1.279Zm9.382-.291V19.466h2.524a1.805,1.805,0,0,1,.977.175.946.946,0,0,1,.425.87,1.082,1.082,0,0,1-.425.93,1.761,1.761,0,0,1-1.012.2ZM13.566,13.615l-.6-1.654v1.647H6.71l-.772-1.851H4.205l-.774,1.851H0V6.433L2.431,0H7.67l.675,1.6V0h6.114L15.8,3.495,17.111,0H35.647a3.015,3.015,0,0,1,2.268.789V0h5.5V.789A6.172,6.172,0,0,1,46.769,0H54.5l.717,1.6V0h5.726l.781,1.6V0h6.561V13.608H61.67l-1.065-2.047v2.047H53.569l-.691-1.856H51.145l-.854,1.856H46.639a6.128,6.128,0,0,1-3.221-.825v.825H34.573v-3.07c0-.435-.065-.458-.293-.468h-.325l.007,3.538H18.146V11.936l-.6,1.679Zm49.908-1.989h2.847v-9.7H64.263V8.68L59.93,1.924H56.872V11.1l-3.4-9.175h-3.01L47.631,9.554h-.9a1.771,1.771,0,0,1-1.4-.5,3.736,3.736,0,0,1-.553-2.277,3.545,3.545,0,0,1,.577-2.2A1.783,1.783,0,0,1,46.9,4H48.8V1.924H46.859a3.753,3.753,0,0,0-3.051,1.13,5.7,5.7,0,0,0-1.082,3.795,5.363,5.363,0,0,0,1.074,3.7,3.865,3.865,0,0,0,2.912,1.074h2.351l.832-1.865h4.172l.709,1.865h4.091V4.344Zm-24.209,0h2.049v-9.7H39.264ZM34.24,7.871c.723,0,1.172.074,1.465.416a4.1,4.1,0,0,1,.316,2.114l.009,1.224h2.026V9.719a3.13,3.13,0,0,0-.333-1.779,2.371,2.371,0,0,0-.993-.818,2.856,2.856,0,0,0,1.633-2.586,2.352,2.352,0,0,0-1.016-2.149,4.178,4.178,0,0,0-2.431-.463H30.295v9.7H32.3V7.871ZM23.234,11.626h5.719V9.619h-3.71V7.68h3.6V5.693h-3.6V3.944h3.71V1.924H23.234Zm-3.868,0h1.94v-9.7H18.315L15.664,8.5l-2.393-6.58h-3.4v9.184L6.6,1.924H3.621l-3.6,9.7H2.205l.779-2.165H7.049l.593,2.165h4.119v-7.6l2.921,7.6h1.763l2.912-7.6ZM50.609,7.738,51.99,3.872l1.391,3.866ZM3.7,7.438,5.066,3.572,6.442,7.438ZM32.3,6.1V3.944h2.474a1.81,1.81,0,0,1,.953.175.917.917,0,0,1,.421.858,1.034,1.034,0,0,1-.414.921,1.635,1.635,0,0,1-.993.2Z" transform="translate(6.38 15.2)" fill="#fff"/>
      </g>
      <path id="Gradient_Overlay" data-name="Gradient Overlay" d="M26,29.172l-1.644-2.1-1.742,2.1H11.778V15.534H22.825l1.584,2.07,1.693-2.07h7.277a4.268,4.268,0,0,1,2.889.791v-.791h6.724a4.853,4.853,0,0,1,2.763.791v-.791h9.412v.791a3.579,3.579,0,0,1,2.447-.791h5.61v.791a3.923,3.923,0,0,1,2.565-.791h4.4v1.928H66.105c-2.151,0-3.545,1.479-3.545,2.884,0,3.065,2.4,2.924,4.324,3a.96.96,0,0,1,.723.214.845.845,0,0,1,.249.642.9.9,0,0,1-.242.632,1.076,1.076,0,0,1-.83.239h-3.94v2.077H66.8c1.312,0,2.888-.416,3.386-1.238v2.64a6.413,6.413,0,0,1-3.005.623h-5.31v-.865a4.371,4.371,0,0,1-2.788.865H42.345V26.048c0-.382-.035-.4-.374-.4H41.7v3.523h-5.51V26.013a7.014,7.014,0,0,1-3.03.475h-.658v2.691Zm28.805-2.024H58.8c2.067,0,2.805-.972,2.805-3.056a2.918,2.918,0,0,0-.612-2.052,2.138,2.138,0,0,0-1.928-.779l-1.1-.033a2.12,2.12,0,0,1-.8-.109.743.743,0,0,1-.449-.723.775.775,0,0,1,.309-.7,1.248,1.248,0,0,1,.821-.175h3.345V17.462H57.5a2.7,2.7,0,0,0-2.93,2.884c0,3.065,2.4,2.924,4.316,3a.993.993,0,0,1,.73.214.887.887,0,0,1,.251.642.92.92,0,0,1-.242.632,1.111,1.111,0,0,1-.837.239H54.809Zm-7.284,0h5.721V25.26l-3.738-.009V23.325h3.621V21.348H49.508V19.466h3.738v-2H47.525Zm-5.314-3.537c.747,0,1.2.082,1.5.43a3.171,3.171,0,0,1,.332,1.895v1.212H46.1V25.228a3.109,3.109,0,0,0-.339-1.768,2.274,2.274,0,0,0-1-.814,2.727,2.727,0,0,0,1.453-2.577,2.338,2.338,0,0,0-1.054-2.151,4.561,4.561,0,0,0-2.465-.456H38.2v9.685h1.824V23.611Zm-15.32,3.537h3.747V23.9H33.2c1.791,0,3.568-.554,3.568-3.245s-1.828-3.191-3.454-3.191H27l-2.607,3.175-2.521-3.175H13.629v9.685h8.117l2.623-3.205Zm-1.2-4.826L28.716,18.5v7.766Zm-10.136,2.93V23.325h3.733V21.348H15.552V19.466H20.69l2.36,2.823-2.458,2.963ZM70,22.039c-.456-.53-1.81-.747-2.931-.779l-1.11-.033a2.066,2.066,0,0,1-.789-.111.729.729,0,0,1-.449-.721.79.79,0,0,1,.3-.7,1.28,1.28,0,0,1,.83-.175h4.34v2.756A1.2,1.2,0,0,0,70,22.039Zm-39.359-.107V19.466H33.31a1.1,1.1,0,0,1,1.254,1.188,1.162,1.162,0,0,1-1.277,1.279Zm9.382-.291V19.466h2.524a1.805,1.805,0,0,1,.977.175.946.946,0,0,1,.425.87,1.082,1.082,0,0,1-.425.93,1.761,1.761,0,0,1-1.012.2ZM13.566,13.615l-.6-1.654v1.647H6.71l-.772-1.851H4.205l-.774,1.851H0V6.433L2.431,0H7.67l.675,1.6V0h6.114L15.8,3.495,17.111,0H35.647a3.015,3.015,0,0,1,2.268.789V0h5.5V.789A6.172,6.172,0,0,1,46.769,0H54.5l.717,1.6V0h5.726l.781,1.6V0h6.561V13.608H61.67l-1.065-2.047v2.047H53.569l-.691-1.856H51.145l-.854,1.856H46.639a6.128,6.128,0,0,1-3.221-.825v.825H34.573v-3.07c0-.435-.065-.458-.293-.468h-.325l.007,3.538H18.146V11.936l-.6,1.679Zm49.908-1.989h2.847v-9.7H64.263V8.68L59.93,1.924H56.872V11.1l-3.4-9.175h-3.01L47.631,9.554h-.9a1.771,1.771,0,0,1-1.4-.5,3.736,3.736,0,0,1-.553-2.277,3.545,3.545,0,0,1,.577-2.2A1.783,1.783,0,0,1,46.9,4H48.8V1.924H46.859a3.753,3.753,0,0,0-3.051,1.13,5.7,5.7,0,0,0-1.082,3.795,5.363,5.363,0,0,0,1.074,3.7,3.865,3.865,0,0,0,2.912,1.074h2.351l.832-1.865h4.172l.709,1.865h4.091V4.344Zm-24.209,0h2.049v-9.7H39.264ZM34.24,7.871c.723,0,1.172.074,1.465.416a4.1,4.1,0,0,1,.316,2.114l.009,1.224h2.026V9.719a3.13,3.13,0,0,0-.333-1.779,2.371,2.371,0,0,0-.993-.818,2.856,2.856,0,0,0,1.633-2.586,2.352,2.352,0,0,0-1.016-2.149,4.178,4.178,0,0,0-2.431-.463H30.295v9.7H32.3V7.871ZM23.234,11.626h5.719V9.619h-3.71V7.68h3.6V5.693h-3.6V3.944h3.71V1.924H23.234Zm-3.868,0h1.94v-9.7H18.315L15.664,8.5l-2.393-6.58h-3.4v9.184L6.6,1.924H3.621l-3.6,9.7H2.205l.779-2.165H7.049l.593,2.165h4.119v-7.6l2.921,7.6h1.763l2.912-7.6ZM50.609,7.738,51.99,3.872l1.391,3.866ZM3.7,7.438,5.066,3.572,6.442,7.438ZM32.3,6.1V3.944h2.474a1.81,1.81,0,0,1,.953.175.917.917,0,0,1,.421.858,1.034,1.034,0,0,1-.414.921,1.635,1.635,0,0,1-.993.2Z" transform="translate(0 0)" opacity="0.2" fill="url(#linear-gradient)"/>
    </g>
  </g>
</svg>
