<svg xmlns="http://www.w3.org/2000/svg" width="38.914" height="37.496" viewBox="0 0 38.914 37.496">
  <g id="Group_282" data-name="Group 282" transform="translate(-167.807 -81.41)">
    <g id="Group_274" data-name="Group 274">
      <g id="Group_273" data-name="Group 273">
        <path id="Path_321" data-name="Path 321" d="M199.591,104.512H182.406a2.4,2.4,0,0,1-2.26-1.611l-5.032-14.517-.006-.016L173.667,84.2a2.4,2.4,0,0,0-2.262-1.61h-2.757a.343.343,0,0,1,0-.685H171.4a3.083,3.083,0,0,1,2.909,2.071l1.364,3.943h28.969a1.578,1.578,0,0,1,1.476,2.131l-5.056,13.437A1.569,1.569,0,0,1,199.591,104.512ZM175.915,88.606l4.878,14.07a1.71,1.71,0,0,0,1.613,1.152h17.185a.89.89,0,0,0,.836-.58l5.055-13.435a.894.894,0,0,0-.835-1.207Z" fill="#222"/>
        <path id="Path_322" data-name="Path 322" d="M199.591,105.01H182.406a2.894,2.894,0,0,1-2.73-1.946l-6.48-18.7A1.9,1.9,0,0,0,171.4,83.09h-2.757a.84.84,0,1,1,0-1.68H171.4a3.581,3.581,0,0,1,3.379,2.4l1.249,3.609h28.613a2.076,2.076,0,0,1,1.944,2.8l-5.057,13.438A2.063,2.063,0,0,1,199.591,105.01ZM176.613,89.1l4.651,13.409a1.21,1.21,0,0,0,1.142.817h17.185a.39.39,0,0,0,.37-.258l5.056-13.434a.391.391,0,0,0-.048-.365.383.383,0,0,0-.323-.169Z" fill="#222"/>
      </g>
    </g>
    <g id="Group_276" data-name="Group 276">
      <g id="Group_275" data-name="Group 275">
        <path id="Path_323" data-name="Path 323" d="M200.017,110.584H182.956a3.378,3.378,0,0,1,0-6.756h12.785a.342.342,0,0,1,0,.684H182.956a2.694,2.694,0,0,0,0,5.388h17.061a.342.342,0,0,1,0,.684Z" fill="#222"/>
        <path id="Path_324" data-name="Path 324" d="M200.017,111.082H182.956a3.876,3.876,0,0,1,0-7.752h12.785a.84.84,0,0,1,0,1.68H182.956a2.2,2.2,0,1,0,0,4.392h17.061a.84.84,0,0,1,0,1.68Z" fill="#222"/>
      </g>
    </g>
    <g id="Group_281" data-name="Group 281">
      <g id="Group_278" data-name="Group 278">
        <g id="Group_277" data-name="Group 277">
          <path id="Path_325" data-name="Path 325" d="M196.746,118.408a2.693,2.693,0,1,1,2.693-2.693A2.7,2.7,0,0,1,196.746,118.408Zm0-4.7a2.009,2.009,0,1,0,2.009,2.01A2.011,2.011,0,0,0,196.746,113.705Z" fill="#222"/>
          <path id="Path_326" data-name="Path 326" d="M196.745,118.906a3.191,3.191,0,1,1,3.192-3.191A3.194,3.194,0,0,1,196.745,118.906Zm0-4.7a1.511,1.511,0,1,0,1.513,1.512A1.513,1.513,0,0,0,196.745,114.2Z" fill="#222"/>
        </g>
      </g>
      <g id="Group_280" data-name="Group 280">
        <g id="Group_279" data-name="Group 279">
          <path id="Path_327" data-name="Path 327" d="M185.051,118.408a2.693,2.693,0,1,1,2.694-2.693A2.7,2.7,0,0,1,185.051,118.408Zm0-4.7a2.009,2.009,0,1,0,2.01,2.01A2.011,2.011,0,0,0,185.051,113.705Z" fill="#222"/>
          <path id="Path_328" data-name="Path 328" d="M185.051,118.906a3.191,3.191,0,1,1,3.192-3.191A3.195,3.195,0,0,1,185.051,118.906Zm0-4.7a1.511,1.511,0,1,0,1.512,1.512A1.513,1.513,0,0,0,185.051,114.2Z" fill="#222"/>
        </g>
      </g>
    </g>
  </g>
</svg>
