<svg xmlns="http://www.w3.org/2000/svg" width="38.451" height="35.824" viewBox="0 0 38.451 35.824">
  <g id="Group_290" data-name="Group 290" transform="translate(-5904.468 -25.836)">
    <g id="Group_285" data-name="Group 285" transform="translate(5794.954 -56.41)">
      <g id="Group_283" data-name="Group 283">
        <path id="Path_329" data-name="Path 329" d="M144.665,106.145H140.52V104.95h4.145a1.984,1.984,0,0,0,1.981-1.981V85.546a1.983,1.983,0,0,0-1.981-1.98H118.942a1.983,1.983,0,0,0-1.982,1.98v3.837h-1.195V85.546a3.179,3.179,0,0,1,3.177-3.175h25.723a3.178,3.178,0,0,1,3.175,3.175v17.423A3.179,3.179,0,0,1,144.665,106.145Z" fill="#222" stroke="#222" stroke-miterlimit="10" stroke-width="0.25"/>
      </g>
      <g id="Group_284" data-name="Group 284">
        <path id="Path_330" data-name="Path 330" d="M137.941,90.578a1.386,1.386,0,0,1,1.384,1.384v17.422a1.384,1.384,0,0,1-1.383,1.383h-9.23a1.934,1.934,0,0,0-1.08.329l-6.1,4.086,1.189-2.745a1.194,1.194,0,0,0-1.1-1.67h-9.409a1.386,1.386,0,0,1-1.385-1.384V91.962a1.386,1.386,0,0,1,1.385-1.384h25.722m0-1.195H112.219a2.58,2.58,0,0,0-2.58,2.579v17.421a2.58,2.58,0,0,0,2.58,2.579h9.409l-2.417,5.581a.288.288,0,0,0,.264.4.283.283,0,0,0,.159-.05l8.663-5.807a.75.75,0,0,1,.415-.126h9.23a2.578,2.578,0,0,0,2.578-2.578V91.962a2.579,2.579,0,0,0-2.579-2.579Z" fill="#222" stroke="#222" stroke-miterlimit="10" stroke-width="0.25"/>
      </g>
    </g>
    <g id="Group_289" data-name="Group 289" transform="translate(5794.954 -56.41)">
      <path id="Path_333" data-name="Path 333" d="M126.539,103.667h-1.558v-.779a2.61,2.61,0,0,1,.273-1.21,4.983,4.983,0,0,1,1.045-1.243,7.051,7.051,0,0,0,1.044-1.127,1.678,1.678,0,0,0,.274-.945,1.593,1.593,0,0,0-.5-1.234,1.911,1.911,0,0,0-1.343-.456,1.971,1.971,0,0,0-1.957,1.591l-1.424-.6a3.811,3.811,0,0,1,1.292-1.773,3.36,3.36,0,0,1,2.089-.679,3.448,3.448,0,0,1,2.445.886,2.961,2.961,0,0,1,.953,2.262,2.747,2.747,0,0,1-.348,1.334,6.459,6.459,0,0,1-1.31,1.517,2.518,2.518,0,0,0-.978,1.741Zm.349,2.652a1.1,1.1,0,0,1-.324.8,1.131,1.131,0,1,1-1.6-1.6,1.124,1.124,0,0,1,1.923.8Z" fill="#222" stroke="#222" stroke-width="1"/>
    </g>
  </g>
</svg>
