<svg id="Group_260" data-name="Group 260" xmlns="http://www.w3.org/2000/svg" width="72.219" height="72.327" viewBox="0 0 72.219 72.327">
  <path id="Path_309" data-name="Path 309" d="M325.707,306.691a27.844,27.844,0,0,1,6.958,14.573c.207,1.137-.276,2.332.34,3.419.257.7-.333,1.017-.695,1.38Q319.32,339.1,306.295,352.092a2.165,2.165,0,0,1-1.535.9c-5.632-.42-10.942-1.889-15.469-5.366-7.107-5.459-11.245-12.557-11.4-21.707-.006-.356-.033-.71-.065-1.063-.007-.75.529-1.182.991-1.643q12.446-12.46,24.905-24.9c.462-.461.894-1,1.647-.992a27.93,27.93,0,0,1,16.848,5.619,3.808,3.808,0,0,1,1.435,1.531c-.533,1.6-1.006,1.927-2.822,1.727a3.846,3.846,0,0,0-3.911,1.845,3.773,3.773,0,0,0-.1,4.063,3.9,3.9,0,0,0,4.513,1.727,3.706,3.706,0,0,0,2.7-3.174,18.293,18.293,0,0,0-.044-1.981C324,307.554,324.378,306.692,325.707,306.691Z" transform="translate(-269.449 -288.585)" fill="#fee7d8"/>
  <path id="Path_310" data-name="Path 310" d="M313.605,294.086a2.4,2.4,0,0,0-1.256,2.852,4.094,4.094,0,0,1-4.028,4.831,4.3,4.3,0,1,1,.351-8.563,2.427,2.427,0,0,0,2.863-1.245c.438-1.52,1.844-2.231,2.8-3.314,1.066-1.207,1.1-1.237-.432-1.691-4.919-1.465-9.887-2.755-14.81-4.2a4.49,4.49,0,0,0-4.4.985c-.5.419-.88,1-1.559,1.188-4.12,4.08-8.252,8.147-12.356,12.243q-7.456,7.442-14.874,14.922c-.538,1.272-1.691,2.01-2.607,2.943-3.581,3.649-3.6,5.161,0,8.76q9.132,9.133,18.263,18.267a17.921,17.921,0,0,0,2.185,1.906c1.859,1.339,3.386,1.3,5.11-.208.921-.8,1.735-1.722,2.616-2.571.4-.383.73-.865,1.326-.986q9.235-9.191,18.467-18.384c3.232-3.229,6.429-6.492,9.642-9.741a5.25,5.25,0,0,0,2.174-6.373c-.792-2.781-1.327-5.634-1.99-8.452-.237-1.007-.39-2.058.895-2.349,1.248-.283,1.642.679,1.874,1.7.72,3.171,1.488,6.332,2.175,9.51a6.958,6.958,0,0,1-2.036,6.963c-1.288,1.222-2.483,2.543-3.719,3.82a4.169,4.169,0,0,1-1.225,1.711q-9.747,9.74-19.484,19.489a8.754,8.754,0,0,1-1.919,1.48q-3.146,3.1-6.292,6.208c-3.414,3.36-7.185,3.367-10.587-.036q-10.523-10.525-21.006-21.09c-3.243-3.266-3.211-7.21.04-10.518l7.052-7.179a4.256,4.256,0,0,1,1.229-1.71q9.1-9.094,18.2-18.2A4.064,4.064,0,0,1,288,285.84c1.456-1.418,2.92-2.827,4.365-4.256a7.24,7.24,0,0,1,7.658-1.977c5.841,1.707,11.719,3.287,17.565,4.978a1.7,1.7,0,0,0,1.973-.508c2.338-2.411,4.739-4.761,7.11-7.141.719-.722,1.511-1.46,2.454-.5.9.922.281,1.742-.465,2.485q-7.029,7.006-14.035,14.035C314.263,293.318,313.942,293.71,313.605,294.086Z" transform="translate(-257.347 -275.98)" fill="#fe6801"/>
  <path id="Path_311" data-name="Path 311" d="M355.85,398.679,378.478,376a21.555,21.555,0,0,1-3.666,10.016A26.993,26.993,0,0,1,355.85,398.679Z" transform="translate(-315.55 -335.078)" fill="#fee7d8"/>
  <path id="Path_312" data-name="Path 312" d="M301.726,300.053q-8.765,8.818-17.533,17.632c-1.182,1.186-2.4,2.331-3.608,3.495a20.949,20.949,0,0,1,4.145-10.152,27.126,27.126,0,0,1,15.645-10.859A3.6,3.6,0,0,1,301.726,300.053Z" transform="translate(-271.078 -290.192)" fill="#fee7d8"/>
  <path id="Path_313" data-name="Path 313" d="M296.885,392.356c-1.279,1.3-2.515,2.656-3.848,3.9-1.835,1.717-3.895,1.757-5.685-.012q-10.957-10.827-21.815-21.753c-1.74-1.752-1.659-4.012.068-5.848,1.419-1.508,2.922-2.938,4.388-4.4.689,1.625.225,3.368.55,5.061a27.8,27.8,0,0,0,6.633,13.592,26.839,26.839,0,0,0,15.445,8.713C294.038,391.879,295.532,391.716,296.885,392.356Z" transform="translate(-261.437 -328.133)" fill="#fefefe"/>
  <path id="Path_314" data-name="Path 314" d="M344.813,293.9c1.862-2.594,4.134-3.321,7.3-2.265,4.766,1.592,9.655,2.818,14.5,4.159,1.03.284,1.478.514.443,1.436-1.327,1.182-2.564,2.465-3.839,3.7a28.5,28.5,0,0,0-12.9-6.344C348.49,294.207,346.615,294.381,344.813,293.9Z" transform="translate(-309.028 -284.956)" fill="#fefefe"/>
  <path id="Path_315" data-name="Path 315" d="M330.2,365.243a1.38,1.38,0,0,1,1.718,1.282c.089,1.1-.746,1.477-1.675,1.572-3.385.349-6.774.667-10.161,1-4.752.464-9.506.914-14.255,1.4-1.053.108-2.029.112-2.223-1.179-.188-1.246.77-1.563,1.722-1.657Q317.758,366.428,330.2,365.243Z" transform="translate(-284.663 -328.715)" fill="#179dd6"/>
  <path id="Path_316" data-name="Path 316" d="M335.726,389.375a4.223,4.223,0,1,1-8.444.092,4.223,4.223,0,1,1,8.444-.092Z" transform="translate(-298.669 -340.493)" fill="#179dd6"/>
  <path id="Path_317" data-name="Path 317" d="M332.676,345.942a4.268,4.268,0,0,1-4.353-4.163,4.257,4.257,0,1,1,8.511-.17A4.228,4.228,0,0,1,332.676,345.942Z" transform="translate(-299.284 -312.279)" fill="#179dd6"/>
  <path id="Path_318" data-name="Path 318" d="M337.013,393.65a1.359,1.359,0,0,1-1.511,1.273,1.414,1.414,0,0,1,.127-2.823C336.491,392.122,336.986,392.676,337.013,393.65Z" transform="translate(-302.77 -344.592)" fill="#f7e5d8"/>
  <path id="Path_319" data-name="Path 319" d="M338.132,345.838c-.157.864-.618,1.464-1.512,1.4a1.413,1.413,0,0,1,.065-2.824A1.4,1.4,0,0,1,338.132,345.838Z" transform="translate(-303.386 -316.416)" fill="#f4e4d8"/>
</svg>
