<svg xmlns="http://www.w3.org/2000/svg" xmlns:xlink="http://www.w3.org/1999/xlink" width="83" height="60" viewBox="0 0 83 60">
  <defs>
    <filter id="Base" x="0" y="0" width="83" height="60" filterUnits="userSpaceOnUse">
      <feOffset dy="1" input="SourceAlpha"/>
      <feGaussianBlur stdDeviation="1.5" result="blur"/>
      <feFlood flood-opacity="0.702"/>
      <feComposite operator="in" in2="blur"/>
      <feComposite in="SourceGraphic"/>
    </filter>
    <filter id="Master_Card" x="15.562" y="25.226" width="51.342" height="10.101" filterUnits="userSpaceOnUse">
      <feOffset dx="-0.465" dy="0.806" input="SourceAlpha"/>
      <feGaussianBlur result="blur-2"/>
      <feFlood flood-color="#0e0a48" flood-opacity="0.851"/>
      <feComposite operator="in" in2="blur-2"/>
      <feComposite in="SourceGraphic"/>
    </filter>
    <linearGradient id="linear-gradient" x1="0.5" y1="1" x2="0.5" gradientUnits="objectBoundingBox">
      <stop offset="0" stop-color="#fff" stop-opacity="0"/>
      <stop offset="1" stop-color="#fff"/>
    </linearGradient>
  </defs>
  <g id="Group_143" data-name="Group 143" transform="translate(-813.543 -4271.5)">
    <g transform="matrix(1, 0, 0, 1, 813.54, 4271.5)" filter="url(#Base)">
      <rect id="Base-2" data-name="Base" width="74" height="51" rx="2.6" transform="translate(4.5 3.5)" fill="#020094"/>
    </g>
    <g id="Logo" transform="translate(827.84 4284.099)">
      <g id="Logo-2" data-name="Logo" transform="translate(0 0.001)">
        <path id="Circle" d="M17.463,30.008A15.766,15.766,0,0,0,28.4,34.467c9.017,0,16.307-7.7,16.307-17.229C44.706,7.745,37.416.009,28.4.009A15.765,15.765,0,0,0,17.463,4.468a17.669,17.669,0,0,0-5.372,12.77,17.61,17.61,0,0,0,5.372,12.77Z" transform="translate(9.625 -0.009)" fill="#f9b728"/>
        <path id="Circle-2" data-name="Circle" d="M33.469,14.634a17.977,17.977,0,0,0-.288-1.824H23.2c.128-.608.288-1.372.48-1.98H32.7q-.288-.912-.672-1.824H24.356c.288-.608.607-1.138.959-1.746h5.756a11.336,11.336,0,0,0-1.247-1.824H26.562a17.113,17.113,0,0,1,1.631-1.824C25.315.84,21.478.009,17.257.009,8.24.009.95,7.745.95,17.238c0,9.527,7.29,17.229,16.307,17.229,4.221,0,8.058-.832,10.936-3.6v-.858c.576-.574,1.151-.325,1.663-.966H26.562a17.944,17.944,0,0,1-1.247-1.825h5.756a15.982,15.982,0,0,0,.959-1.824H24.356a17.637,17.637,0,0,1-.671-1.981H32.7q.288-.912.48-1.824a17.977,17.977,0,0,0,.288-1.824c.064-.608.1-2.7.1-3.306a5.781,5.781,0,0,0-.1-1.045Z" transform="translate(-0.95 -0.009)" fill="#e11e01"/>
        <g transform="matrix(1, 0, 0, 1, -14.3, -12.6)" filter="url(#Master_Card)">
          <path id="Master_Card-2" data-name="Master Card" d="M35.254,7.354c0-1.735,1.131-2.757,3.079-2.757a5.107,5.107,0,0,1,.691.034,1.24,1.24,0,0,0,.064-.442c0-.477-.284-.646-1.1-.646a4.643,4.643,0,0,0-1.445.2l-.251.069-.157.033.251-1.6a6.63,6.63,0,0,1,2.073-.374c1.507,0,2.292.715,2.292,2.077a8.193,8.193,0,0,1-.157,1.43l-.346,2.553-.062.442-.064.374-.031.238v.206H38.646l.031-.749a2.133,2.133,0,0,1-1.82.851C35.915,9.3,35.254,8.512,35.254,7.354Zm1.7-.305c0,.442.251.748.629.748.691,0,1.224-.748,1.257-1.8a1.924,1.924,0,0,0-.408-.034C37.453,5.959,36.95,6.334,36.95,7.049ZM20.79,6.06c0-2.485,1.288-4.289,3.046-4.289a2.324,2.324,0,0,1,2.325,2.622,10.473,10.473,0,0,1-.188,1.77H22.517a.551.551,0,0,0-.031.2c0,.816.5,1.26,1.539,1.26a3.949,3.949,0,0,0,1.789-.444l-.282,1.771a5.362,5.362,0,0,1-1.789.307C21.8,9.261,20.79,8.136,20.79,6.06ZM22.643,4.7h1.917V4.325c0-.58-.282-.919-.816-.919S22.8,3.882,22.643,4.7Zm-8.918,4.46a1.338,1.338,0,0,1-.439-.069l-.315-.067h-.095l.251-1.668a4.4,4.4,0,0,0,1.539.307c.691,0,1.006-.206,1.006-.648,0-.34-.095-.442-.816-.816a2.06,2.06,0,0,1-1.319-1.975c0-1.327.66-2.416,2.605-2.416a12.483,12.483,0,0,1,1.539.135L17.43,3.609a9.134,9.134,0,0,0-1.257-.135q-.847,0-.847.612c0,.307.095.408.816.749a1.976,1.976,0,0,1,1.226,2.008c0,1.634-.849,2.383-2.671,2.383C14.479,9.227,14.133,9.193,13.725,9.158ZM7.694,7.286c0-1.737,1.1-2.757,3.046-2.757a5.117,5.117,0,0,1,.692.034,1.27,1.27,0,0,0,.062-.442c0-.477-.282-.646-1.1-.646a4.643,4.643,0,0,0-1.445.2L8.7,3.745l-.157.034.251-1.6a6.574,6.574,0,0,1,2.072-.374c1.508,0,2.294.715,2.294,2.077A8.361,8.361,0,0,1,13,5.312l-.346,2.552-.064.444-.031.374-.031.238-.031.2H11.055l.031-.749a2.1,2.1,0,0,1-1.822.852C8.323,9.227,7.694,8.443,7.694,7.286Zm1.665-.307c0,.442.251.749.629.749.722,0,1.224-.749,1.255-1.8a1.909,1.909,0,0,0-.408-.034C9.862,5.89,9.359,6.266,9.359,6.979ZM43.81,6.094C43.81,3.711,45.1,1.7,46.638,1.7a1.913,1.913,0,0,1,1.664.988L48.678.033h1.727L49.086,9.124H47.423l.093-.715a2,2,0,0,1-1.6.784C44.659,9.193,43.81,7.9,43.81,6.094ZM45.4,6c0,.919.509,1.282,1.107,1.282l-.227.114c.816,0,1.381-.988,1.381-2.418,0-.885-.313-1.4-.911-1.4C45.97,3.585,45.4,4.573,45.4,6ZM40.656,9.124,41.725,1.8h1.569l-.157,1.089c.534-.851.88-1.157,1.445-1.157.064,0,.126,0,.157.034H44.8a7.813,7.813,0,0,0-.66,2.077h-.126c-.816,0-1.006.886-1.6,5.278ZM29.992,5.345c0-3.167,1.6-5.345,3.894-5.345a5.053,5.053,0,0,1,.785.067l.723.2c.219.1.251.1.408.171L35.52,2.348a3.121,3.121,0,0,0-1.539-.475c-1.319,0-2.23,1.362-2.23,3.3,0,1.327.629,2.145,1.634,2.145a3.109,3.109,0,0,0,1.476-.442l-.315,2.008a5.377,5.377,0,0,1-1.538.238C31.155,9.122,29.992,7.692,29.992,5.345ZM17.724,7.557a5.11,5.11,0,0,1,.064-.646l.095-.715.093-.545L18.73.06h1.727l-.188,1.812h.878L20.9,3.642h-.878l-.472,2.894c0,.135-.031.237-.031.305,0,.375.188.545.6.545a1.572,1.572,0,0,0,.472-.069l-.22,1.566a3.49,3.49,0,0,1-1.255.238C18.227,9.122,17.724,8.579,17.724,7.557Zm8.642,1.5L27.4,1.8H29l-.157,1.089c.534-.851.849-1.157,1.414-1.157a.366.366,0,0,1,.188.034h.064a6.786,6.786,0,0,0-.66,2.077h-.126c-.849,0-1.006.818-1.634,5.209Zm-21.152,0,1-6.912L3.988,9.056H2.795L2.669,2.178,1.6,9.056H0L1.35.1H3.831l.095,5.446L5.591.1h2.7L6.941,8.987v.069ZM49.84,8.442a.519.519,0,1,1,1.037,0,.522.522,0,1,1-1.037,0Zm.126,0a.4.4,0,1,0,.785,0,.4.4,0,0,0-.377-.408A.4.4,0,0,0,49.966,8.442Zm.47.273-.062-.2H50.28v.2h-.095V8.2h.189a.177.177,0,0,1,.126.034c.031.034.062.069.062.1,0,.067-.031.135-.093.135l.093.238Zm-.157-.307h.126c.031,0,.031-.034.031-.067,0,0,0-.034-.031-.034H50.28Z" transform="translate(16.03 25.23)" fill="#fff"/>
        </g>
      </g>
      <path id="Gradient_Overlay" data-name="Gradient Overlay" d="M27.242,30.146v.71c-2.879,2.77-6.715,3.6-10.936,3.6C7.289,34.458,0,26.755,0,17.229,0,7.736,7.289,0,16.306,0c4.221,0,8.057.832,10.936,3.6a17.2,17.2,0,0,0-1.631,1.824h.549c.3-.333.607-.656.928-.967A15.761,15.761,0,0,1,38.022,0C47.039,0,54.33,7.736,54.33,17.229c0,9.526-7.291,17.229-16.308,17.229A15.749,15.749,0,0,1,27.242,30.146Zm-1.631-1.114h.542a16.974,16.974,0,0,1-1.419-1.824h-.37A17.96,17.96,0,0,0,25.611,29.032Zm-2.205-3.647h.253A17.822,17.822,0,0,1,22.8,23.4h-.061A17.719,17.719,0,0,0,23.406,25.385ZM22.253,12.8h.009a17.8,17.8,0,0,1,.625-1.981h-.153C22.543,11.429,22.381,12.192,22.253,12.8ZM23.406,9h.3A17.586,17.586,0,0,1,24.742,7.25h-.379C24.013,7.857,23.693,8.389,23.406,9Z" transform="translate(0.001 0)" opacity="0.15" fill="url(#linear-gradient)"/>
    </g>
  </g>
</svg>
