<svg xmlns="http://www.w3.org/2000/svg" xmlns:xlink="http://www.w3.org/1999/xlink" width="84" height="60" viewBox="0 0 84 60">
  <defs>
    <filter id="Base" x="0" y="0" width="84" height="60" filterUnits="userSpaceOnUse">
      <feOffset dy="1" input="SourceAlpha"/>
      <feGaussianBlur stdDeviation="1.5" result="blur"/>
      <feFlood flood-opacity="0.702"/>
      <feComposite operator="in" in2="blur"/>
      <feComposite in="SourceGraphic"/>
    </filter>
    <pattern id="pattern" preserveAspectRatio="none" width="100%" height="100%" viewBox="0 0 0 0">
      <image/>
    </pattern>
    <linearGradient id="linear-gradient" x1="0.5" y1="1" x2="0.5" gradientUnits="objectBoundingBox">
      <stop offset="0" stop-color="#fff" stop-opacity="0"/>
      <stop offset="1" stop-color="#fff"/>
    </linearGradient>
  </defs>
  <g id="Group_141" data-name="Group 141" transform="translate(-1021.543 -4271.5)">
    <g transform="matrix(1, 0, 0, 1, 1021.54, 4271.5)" filter="url(#Base)">
      <rect id="Base-2" data-name="Base" width="75" height="51" rx="2.6" transform="translate(4.5 3.5)" fill="#ff992a"/>
    </g>
    <g id="Logo_Shading" data-name="Logo Shading" transform="translate(1031.928 4292.654)">
      <g id="Logo_Shading-2" data-name="Logo Shading" transform="translate(0 0)">
        <rect id="Layer_2" data-name="Layer 2" transform="translate(0.115 0.346)" fill="url(#pattern)"/>
        <path id="Pay" d="M22.472,15.984c-.392,0-.517-.311-.282-.69l1.746-2.922c-.025-.138-.049-.305-.076-.5l-1.4-9.062a.539.539,0,0,1,.549-.692h1.619a.934.934,0,0,1,.867.692L26.372,8.3l3.208-5.5a1.535,1.535,0,0,1,1.137-.692H33.3L25.484,15.294a1.527,1.527,0,0,1-1.135.69ZM11.791,11.41a2.182,2.182,0,0,1-.743-1.716A3.286,3.286,0,0,1,11.576,7.8a3.608,3.608,0,0,1,1.557-1.238,8.619,8.619,0,0,1,2.3-.628q1.343-.193,2.9-.284c.007-.035.019-.09.041-.168a1.382,1.382,0,0,0,.028-.254.835.835,0,0,0-.551-.821,4.438,4.438,0,0,0-1.644-.233,6.048,6.048,0,0,0-1.638.252c-.6.166-1.045.307-1.343.417-.152,0-.215-.314-.141-.7l.309-1.557c.348-.088.892-.191,1.629-.3a14.369,14.369,0,0,1,2.194-.168,6.885,6.885,0,0,1,3.238.577,1.915,1.915,0,0,1,1.033,1.794,3.87,3.87,0,0,1-.032.434,2.839,2.839,0,0,1-.076.47L20.06,11.108a.936.936,0,0,1-.869.692H16.913l.231-1c-.187.127-.417.277-.683.454a5.135,5.135,0,0,1-.747.417,5.985,5.985,0,0,1-.876.3,4.987,4.987,0,0,1-1.139.1A2.768,2.768,0,0,1,11.791,11.41Zm4.645-3.879a6.081,6.081,0,0,0-1.193.267,1.74,1.74,0,0,0-.775.519A1.372,1.372,0,0,0,14.2,9.2a.707.707,0,0,0,.353.68,2.171,2.171,0,0,0,1.029.2,2.5,2.5,0,0,0,.948-.207,4.691,4.691,0,0,0,.948-.524l.455-1.975C17.405,7.418,16.9,7.469,16.436,7.531ZM.567,11.922a.539.539,0,0,1-.549-.69L2.578.69A.933.933,0,0,1,3.446,0H7.231A12,12,0,0,1,9.367.168a4.545,4.545,0,0,1,1.575.579,2.756,2.756,0,0,1,1,1.066V1.506a4.963,4.963,0,0,1,.344,1.944,3.746,3.746,0,0,1-1.852,3.285A8.576,8.576,0,0,1,5.261,8.1H4.742a.937.937,0,0,0-.869.69l-.621,2.443a.937.937,0,0,1-.867.69ZM5.282,2.685,4.735,5.04a.543.543,0,0,0,.551.692h.452a3.81,3.81,0,0,0,2.286-.6,1.987,1.987,0,0,0,.821-1.7,1.2,1.2,0,0,0-.53-1.079A2.84,2.84,0,0,0,6.744,2H6.149A.935.935,0,0,0,5.282,2.685Z" transform="translate(1.262 1.785)" fill="#1a3665"/>
        <path id="Pal" d="M11.789,11.509a2.187,2.187,0,0,1-.74-1.714,2.486,2.486,0,0,1,.526-1.624,3.6,3.6,0,0,1,1.557-1.238,8.69,8.69,0,0,1,2.3-.628q1.343-.193,2.9-.284c.007-.034.019-.09.039-.166A1.28,1.28,0,0,0,18.4,5.6a.832.832,0,0,0-.551-.817,4.383,4.383,0,0,0-1.644-.235,6.139,6.139,0,0,0-1.638.252c-.6.168-1.045.307-1.342.417-.152,0-.215-.312-.141-.694l.307-1.559c.353-.088.9-.189,1.631-.3a14.375,14.375,0,0,1,2.2-.168,6.9,6.9,0,0,1,3.236.577A1.921,1.921,0,0,1,21.49,4.86a3.916,3.916,0,0,1-.034.433,3.254,3.254,0,0,1-.076.471l-1.322,5.444a.935.935,0,0,1-.867.69H16.96l.185-1c-.189.124-.42.275-.685.452a5.228,5.228,0,0,1-.747.417,6.127,6.127,0,0,1-.876.3,5.014,5.014,0,0,1-1.139.1A2.767,2.767,0,0,1,11.789,11.509ZM16.434,7.9a5.976,5.976,0,0,0-1.193.268,1.7,1.7,0,0,0-.771.517c-.18.222-.268.252-.268.618,0,.323.12.817.355.946s.581-.069,1.031-.069a2.5,2.5,0,0,0,.946-.207,4.644,4.644,0,0,0,.948-.524l.457-1.709Q17.136,7.808,16.434,7.9Zm.477,4h.049l-.049.267Zm5.3,0a.54.54,0,0,1-.549-.69L24.091.877a.933.933,0,0,1,.867-.689L27.286.065,24.7,11.21a.937.937,0,0,1-.869.69ZM.565,11.9a.539.539,0,0,1-.547-.69L2.579.688A.929.929,0,0,1,3.444,0H7.231A11.985,11.985,0,0,1,9.367.168a4.51,4.51,0,0,1,1.575.579,2.731,2.731,0,0,1,1,1.066V1.506a4.957,4.957,0,0,1,.344,1.944,3.75,3.75,0,0,1-1.85,3.285A8.586,8.586,0,0,1,5.261,8.1H4.74a.937.937,0,0,0-.867.692l-.621,2.42a.939.939,0,0,1-.869.69ZM5.282,2.685,4.737,5.04a.539.539,0,0,0,.549.69h.45a3.816,3.816,0,0,0,2.288-.6,1.988,1.988,0,0,0,.819-1.707A1.2,1.2,0,0,0,8.315,2.35,2.847,2.847,0,0,0,6.742,2H6.149A.934.934,0,0,0,5.282,2.685Z" transform="translate(33.267 1.787)" fill="#32689a"/>
        <path id="TM" d="M3.845,2.2V.36L3.2,2.2H2.939L2.306.339V2.2H2.025V0h.433l.524,1.555c.048.143.083.254.1.323.028-.079.067-.2.12-.351L3.734,0h.392V2.2ZM.722,2.2V.26H0V0H1.737V.26H1.013V2.2Z" transform="translate(61.547 2.002)" fill="#1a3665"/>
      </g>
      <path id="Gradient_Overlay" data-name="Gradient Overlay" d="M22.472,15.984c-.392,0-.517-.311-.283-.69l1.746-2.921c-.024-.138-.05-.306-.076-.5l-1.4-9.062a.539.539,0,0,1,.549-.692h1.619a.933.933,0,0,1,.867.692L26.372,8.3l3.208-5.5a1.535,1.535,0,0,1,1.137-.692H33.3L25.484,15.294a1.525,1.525,0,0,1-1.135.69ZM43.794,11.51A2.186,2.186,0,0,1,43.055,9.8a2.489,2.489,0,0,1,.526-1.625,3.592,3.592,0,0,1,1.557-1.237,8.672,8.672,0,0,1,2.3-.628q1.342-.193,2.9-.284c.007-.033.019-.09.039-.166a1.269,1.269,0,0,0,.028-.258.832.832,0,0,0-.551-.817,4.374,4.374,0,0,0-1.643-.235,6.117,6.117,0,0,0-1.638.253q-.9.251-1.342.416c-.152,0-.215-.312-.141-.693L45.4,2.963c.354-.088.9-.189,1.632-.3a14.434,14.434,0,0,1,2.2-.167,6.914,6.914,0,0,1,3.236.577A1.922,1.922,0,0,1,53.5,4.862a4.025,4.025,0,0,1-.033.433,3.228,3.228,0,0,1-.076.472L52.063,11.21a.934.934,0,0,1-.867.69H48.965l.185-1c-.189.123-.42.275-.685.452a5.306,5.306,0,0,1-.747.417,6.077,6.077,0,0,1-.876.3,4.989,4.989,0,0,1-1.139.1A2.768,2.768,0,0,1,43.794,11.51ZM48.439,7.9a6.029,6.029,0,0,0-1.193.268,1.7,1.7,0,0,0-.771.518c-.18.222-.268.252-.268.617,0,.323.12.818.355.947s.581-.069,1.031-.069a2.5,2.5,0,0,0,.946-.206,4.6,4.6,0,0,0,.948-.525l.457-1.709Q49.141,7.81,48.439,7.9Zm.477,4h.049l-.049.266ZM11.792,11.41a2.18,2.18,0,0,1-.743-1.716A3.289,3.289,0,0,1,11.576,7.8a3.608,3.608,0,0,1,1.557-1.237,8.609,8.609,0,0,1,2.3-.628c.9-.129,1.859-.224,2.9-.284.007-.035.02-.09.041-.167a1.367,1.367,0,0,0,.029-.255.835.835,0,0,0-.551-.821,4.432,4.432,0,0,0-1.644-.233,6.025,6.025,0,0,0-1.638.253c-.6.166-1.045.307-1.344.417-.151,0-.215-.315-.141-.7l.31-1.557c.347-.088.891-.191,1.629-.3a14.428,14.428,0,0,1,2.194-.167,6.9,6.9,0,0,1,3.238.577,1.915,1.915,0,0,1,1.032,1.794,3.763,3.763,0,0,1-.032.435,2.917,2.917,0,0,1-.076.47L20.06,11.108a.936.936,0,0,1-.868.692H16.913l.231-1c-.187.127-.417.277-.683.454a5.159,5.159,0,0,1-.747.417,5.934,5.934,0,0,1-.876.3,4.961,4.961,0,0,1-1.139.1A2.768,2.768,0,0,1,11.792,11.41Zm4.644-3.879a6.153,6.153,0,0,0-1.193.266,1.75,1.75,0,0,0-.775.519A1.373,1.373,0,0,0,14.2,9.2a.708.708,0,0,0,.353.68,2.175,2.175,0,0,0,1.03.2,2.5,2.5,0,0,0,.948-.207,4.674,4.674,0,0,0,.949-.525l.455-1.976C17.405,7.418,16.9,7.469,16.436,7.531ZM.567,11.921a.539.539,0,0,1-.549-.69L2.578.69A.933.933,0,0,1,3.446,0H7.232A12.041,12.041,0,0,1,9.367.167a4.552,4.552,0,0,1,1.575.58,2.749,2.749,0,0,1,1,1.067V1.506a4.966,4.966,0,0,1,.345,1.944,3.745,3.745,0,0,1-1.852,3.285A8.57,8.57,0,0,1,5.261,8.1H4.742a.937.937,0,0,0-.869.69l-.621,2.443a.937.937,0,0,1-.867.69ZM5.282,2.686,4.735,5.04a.543.543,0,0,0,.551.692h.452a3.807,3.807,0,0,0,2.287-.6,1.987,1.987,0,0,0,.821-1.7,1.2,1.2,0,0,0-.53-1.078A2.838,2.838,0,0,0,6.745,2H6.15A.936.936,0,0,0,5.282,2.686ZM54.213,11.9a.54.54,0,0,1-.549-.69L56.1.879a.934.934,0,0,1,.868-.688L59.291.068,56.7,11.212a.936.936,0,0,1-.868.69Zm-21.643,0a.539.539,0,0,1-.547-.69L34.584.69A.929.929,0,0,1,35.449,0h3.787a12.034,12.034,0,0,1,2.136.167,4.516,4.516,0,0,1,1.575.58,2.73,2.73,0,0,1,1,1.066V1.508a4.959,4.959,0,0,1,.345,1.944,3.749,3.749,0,0,1-1.85,3.285A8.581,8.581,0,0,1,37.266,8.1h-.521a.936.936,0,0,0-.867.692l-.622,2.42a.938.938,0,0,1-.868.69Zm4.717-9.213-.545,2.354a.539.539,0,0,0,.549.69h.45a3.81,3.81,0,0,0,2.288-.6,1.987,1.987,0,0,0,.82-1.707,1.2,1.2,0,0,0-.528-1.075A2.846,2.846,0,0,0,38.747,2h-.593A.934.934,0,0,0,37.287,2.687ZM64.13,2.415V.578l-.643,1.837h-.263L62.59.556V2.415H62.31V.217h.433l.524,1.555c.048.143.083.255.1.323.028-.079.067-.2.12-.351l.53-1.527h.392v2.2Zm-3.123,0V.477h-.722V.217h1.737v.26H61.3V2.415Z" transform="translate(1.262 1.784)" opacity="0.3" fill="url(#linear-gradient)"/>
    </g>
  </g>
</svg>
