<svg id="Group_258" data-name="Group 258" xmlns="http://www.w3.org/2000/svg" width="72.444" height="69.541" viewBox="0 0 72.444 69.541">
  <path id="Path_295" data-name="Path 295" d="M309.094,728.289c-2.316-2.7-4.038-5.523-3.285-9.271,0-.867.008-1.735,0-2.6a6.313,6.313,0,0,0-4.308-6.211,29.623,29.623,0,0,0-4.239-1.256,7.784,7.784,0,0,1-4.934-3.559c-.54-.863-1.113-1.706-1.71-2.532-2.9-3.989-5.413-4.7-10.015-2.9a19.722,19.722,0,0,1-3.87,1.383c-2.4.409-4.492-.47-6.62-1.346-4.562-1.886-7.295-1.068-10.138,2.974-.528.749-1.051,1.5-1.522,2.287a7.787,7.787,0,0,1-5.171,3.723,20.658,20.658,0,0,0-4.91,1.628,5.817,5.817,0,0,0-3.441,5.192c-.07,1.677-.033,3.359.025,5.036a8.106,8.106,0,0,1-1.825,5.519c-.859,1.076-1.714,2.152-2.5,3.277a6.58,6.58,0,0,0-.02,8.35c.786,1.125,1.628,2.213,2.508,3.269a7.968,7.968,0,0,1,1.833,5.515c-.041,1.375-.115,2.749-.07,4.124.115,3.67,1.411,5.605,4.889,6.7,6.62,2.091,6.423,1.309,10.944,8.084a5.99,5.99,0,0,0,6.628,2.692,30.6,30.6,0,0,0,4.787-1.522,8.373,8.373,0,0,1,6.391-.008c.892.36,1.792.732,2.708,1.035,4.271,1.4,6.419.749,9.169-2.8a18.665,18.665,0,0,0,1.383-2.013,9.09,9.09,0,0,1,6.35-4.566,20.223,20.223,0,0,0,3.334-1.088,6.25,6.25,0,0,0,4.345-6.178c.008-1.477.074-2.958-.012-4.431a7.739,7.739,0,0,1,1.8-5.519c.577-.712,1.129-1.44,1.69-2.168C312.351,735.138,312.367,732.1,309.094,728.289Zm-1.469,8.444c-.806,1.113-1.694,2.164-2.545,3.244a9.733,9.733,0,0,0-2.136,6.677c.061,1.375.074,2.749.1,4.124a3.879,3.879,0,0,1-2.782,4.091,23.073,23.073,0,0,1-3.073.884,10.844,10.844,0,0,0-7.577,5.4,17.137,17.137,0,0,1-2.459,3.486,3.258,3.258,0,0,1-3.318,1,23.837,23.837,0,0,1-3.911-1.264,10.94,10.94,0,0,0-9.312.049c-5,2.283-6.726,1.751-9.4-3.019a10.9,10.9,0,0,0-7.168-5.495,31.391,31.391,0,0,1-3.371-.949c-2.209-.822-2.933-1.923-2.966-4.267-.012-.867,0-1.735,0-2.6.642-3.911-.839-7.082-3.424-9.876a11.421,11.421,0,0,1-.757-.957c-2.013-2.7-1.992-4.324.09-6.988.221-.282.442-.56.683-.822a12.781,12.781,0,0,0,3.465-9.9c-.274-5.72.086-6.17,5.56-7.671a13.6,13.6,0,0,0,8.383-6.341c2.545-4.157,3.551-4.521,8.3-2.545a12.837,12.837,0,0,0,10.731.008c4.549-1.988,5.842-1.563,8.4,2.659a12.837,12.837,0,0,0,8.845,6.4,13.8,13.8,0,0,1,2.332.712c1.788.7,2.933,1.976,2.708,3.964a17.081,17.081,0,0,0,4.635,14.418C309.3,732.9,309.058,734.758,307.626,736.734Z" transform="translate(-239.122 -699.028)" fill="#fe6801"/>
  <path id="Path_296" data-name="Path 296" d="M288.261,770.684a27.352,27.352,0,1,1,27.339-26.8A27.214,27.214,0,0,1,288.261,770.684Z" transform="translate(-252.006 -709.046)" fill="#fee7d8"/>
  <path id="Path_297" data-name="Path 297" d="M298.525,778.117a4.3,4.3,0,0,1-3.562-1.5c-2.739-2.735-5.48-5.47-8.159-8.264a4.825,4.825,0,0,1-.124-6.64,4.676,4.676,0,0,1,6.612-.47,46.286,46.286,0,0,1,4.272,4.144c.758.811,1.2.89,2.03.036,3.908-4.015,7.888-7.96,11.853-11.918,2.22-2.215,5.094-2.281,7.172-.194,1.955,1.964,1.865,4.905-.282,7.074q-7.956,8.036-15.947,16.037A4.539,4.539,0,0,1,298.525,778.117Z" transform="translate(-266.477 -730.204)" fill="#169cd6"/>
  <path id="Path_298" data-name="Path 298" d="M321.3,760.836a2.279,2.279,0,0,1-.775,1.6q-8.1,8.092-16.194,16.182c-1.176,1.169-2.136,1.173-3.313.023-2.654-2.6-5.269-5.235-7.892-7.863a1.952,1.952,0,0,1-.239-2.967,2.068,2.068,0,0,1,3.111.064c1.766,1.686,3.462,3.444,5.2,5.156,1.211,1.191,1.726,1.2,2.926,0q6.435-6.408,12.854-12.831a6.333,6.333,0,0,1,1.4-1.16A2,2,0,0,1,321.3,760.836Z" transform="translate(-270.547 -734.35)" fill="#fee7d8"/>
</svg>
