<svg id="Group_259" data-name="Group 259" xmlns="http://www.w3.org/2000/svg" width="54.655" height="64.518" viewBox="0 0 54.655 64.518">
  <path id="Path_299" data-name="Path 299" d="M336.736,551.023c-1.72,1.75-3.19,3.785-5.517,4.844-2.129-.053-2.281.095-2.313,2.26-.011.76.043,1.523-.029,2.279-.048.514.083,1.175-.7,1.317-.458-.439-.384-1.02-.418-1.571-.091-1.48-.128-1.516-1.5-.985a27.029,27.029,0,0,1-10.567,2,27.341,27.341,0,0,1-20.775-9.648q-.4-.46-.8-.923a.6.6,0,0,0-.36-.2c-.039,2.911.024,5.8-.042,8.679-.013.591.314,1.454-.724,1.648a3.457,3.457,0,0,1-.458-2.49c.148-11.849.4-23.7.316-35.548-.018-2.395-.453-4.76-.329-7.159.109-2.117.531-2.63,2.65-2.636q16.179-.05,32.359,0c2.154.005,2.6.486,2.658,2.6a15.181,15.181,0,0,0,.08,1.981c.067.418.182.84.684.879.566.044.8-.367.9-.846a19.789,19.789,0,0,0,.118-2.587c.084-1.138-.319-2.352.488-3.387,6.027,4.926,9.824,11.166,10.628,18.956a23.94,23.94,0,0,1-1.108,10.946,8.561,8.561,0,0,0-.369,2.845,34.727,34.727,0,0,1-.144,5.461c-.838-.5-.584-1.346-.59-2.062-.034-4.125-.006-8.251-.02-12.377-.008-2.245-.122-2.4-2.4-2.513-1.266-.063-1.879-.6-1.864-1.868.006-.458,0-.917-.023-1.375a6.813,6.813,0,0,0-5.832-6.49,6.674,6.674,0,0,0-7.276,4.973,9.973,9.973,0,0,0-.345,2.872c.021,1.266-.572,1.813-1.843,1.885-2.36.133-2.422.238-2.426,2.636-.008,4.228-.018,8.455,0,12.683.011,2.024.38,2.392,2.437,2.4,4.431.027,8.863,0,13.294.019C335.327,550.529,336.137,550.357,336.736,551.023Z" transform="translate(-288.614 -501.688)" fill="#fee7d8"/>
  <path id="Path_300" data-name="Path 300" d="M328.4,497.316c-.019,1.934-.048,3.869-.052,5.8,0,.982-.282,1.758-1.406,1.787-1.163.029-1.427-.765-1.4-1.745a1.057,1.057,0,0,0,0-.153c-.138-1.247.568-2.87-.36-3.654-.876-.74-2.452-.219-3.717-.223-10.189-.026-20.378,0-30.566-.069-1.453-.009-1.914.374-1.886,1.863.272,14.721.051,29.443.034,44.165a2.44,2.44,0,0,0,.189,1.487c1.252,1.945,3.118,2.293,5.283,2.275,8.04-.068,16.08-.056,24.12-.007,1.978.012,3.855-.111,5.462-1.414.707-1.44.207-2.967.315-4.45.052-.717.074-1.444.828-1.824s1.353.027,1.913.493c0,1.679.029,3.359-.011,5.037a5.5,5.5,0,0,1-5.3,5.281q-15.112.047-30.225,0a5.54,5.54,0,0,1-5.164-4.405,15.212,15.212,0,0,1-.215-2.577c-.036-5.291-.044-10.582-.061-15.873a89.251,89.251,0,0,1,0-19.875q.026-7.64.053-15.279a6.511,6.511,0,0,1,1.527-4.664,4.935,4.935,0,0,1,3.723-1.81c10.545,0,21.089-.036,31.634.019a5.45,5.45,0,0,1,5.2,5.383C328.4,494.362,328.379,495.84,328.4,497.316Z" transform="translate(-284.554 -487.474)" fill="#fe6801"/>
  <path id="Path_301" data-name="Path 301" d="M374.091,566.874l-15.89-.05c-2.154-.007-2.476-.321-2.478-2.473q-.007-7.029,0-14.059c0-1.9.248-2.141,2.094-2.164a4.487,4.487,0,0,1,.763,0c1.207.2,1.54-.3,1.53-1.5-.036-4.092,1.576-6.639,4.8-7.856a7.194,7.194,0,0,1,9.47,6.1c0,.051.006.1.008.153.037.962-.266,2.166.2,2.821.525.737,1.8.211,2.747.261,1.382.074,1.453,1.033,1.454,2.05q0,6.418,0,12.836c0,.865.025,1.731.038,2.6a1.833,1.833,0,0,1-2.012,1.242C375.906,566.807,375,566.857,374.091,566.874Z" transform="translate(-325.969 -517.539)" fill="#169cd6"/>
  <path id="Path_302" data-name="Path 302" d="M284.632,540.677q0,9.938,0,19.875A31.129,31.129,0,0,1,284.632,540.677Z" transform="translate(-283.004 -518.91)" fill="#fee2d0"/>
  <path id="Path_303" data-name="Path 303" d="M329.321,615.8a2.71,2.71,0,0,1-2.913,1.75q-14.4.038-28.8,0a2.776,2.776,0,0,1-3.148-2.6V603.181c.936,1.051,1.6,1.782,2.245,2.526a26.5,26.5,0,0,0,16.616,8.914,27.226,27.226,0,0,0,14.97-2.121c.856-.362,1.088-.149,1.051.707S329.324,614.937,329.321,615.8Z" transform="translate(-289.771 -555.842)" fill="#fefefe"/>
  <path id="Path_304" data-name="Path 304" d="M294.214,500.054a6.537,6.537,0,0,1,.04-3.877,2.678,2.678,0,0,1,2.909-1.969c4.329.029,8.659.008,12.989.007,5.654,0,11.308-.014,16.962.009,2.15.009,2.982.839,3.177,3.012a1.567,1.567,0,0,1,.1.594c.033,1.634-.253,1.866-1.725,1.152a27.534,27.534,0,0,0-8.722-2.566A23.847,23.847,0,0,0,306,498.551a14.207,14.207,0,0,1-7.875,1.677C296.826,500.115,295.505,500.405,294.214,500.054Z" transform="translate(-289.463 -491.453)" fill="#fefefe"/>
  <path id="Path_305" data-name="Path 305" d="M294.614,502.084a26.723,26.723,0,0,0,13.194-2.478c6.855-3.045,13.966-2.346,20.794.72,1.948.874,1.918.939,2.091-1.058a1.172,1.172,0,0,1,.1.283c.247,2.686.177,2.76-2.455,2.762q-16.073.014-32.145.019C295.67,502.331,295.076,502.572,294.614,502.084Z" transform="translate(-289.864 -493.483)" fill="#fee6d6"/>
  <path id="Path_306" data-name="Path 306" d="M371.289,569.052c2.546,0,5.093.025,7.639-.015.779-.012,1.069.2,1.06,1.022q-.058,5.5,0,11c.01.89-.31,1.114-1.151,1.108q-7.639-.047-15.278,0c-.791,0-1.062-.232-1.054-1.04.035-3.667.043-7.334,0-11-.012-.908.32-1.1,1.149-1.09C366.2,569.081,368.742,569.052,371.289,569.052Z" transform="translate(-329.976 -535.666)" fill="#fee7d8"/>
  <path id="Path_307" data-name="Path 307" d="M377.386,552.136c-1.067,0-2.135.008-3.2,0-.386,0-.8.083-1-.448a5.475,5.475,0,0,1,2.23-6.028,4.277,4.277,0,0,1,6.2,2.875c.035.148.075.3.1.446.5,2.981.348,3.16-2.645,3.16Z" transform="translate(-336.146 -521.549)" fill="#fde7d8"/>
  <path id="Path_308" data-name="Path 308" d="M379.541,581.569a3.117,3.117,0,0,0-.291-1.983,1.721,1.721,0,0,1,.622-2.154,1.848,1.848,0,0,1,2.265-.1,1.675,1.675,0,0,1,.789,2.1,5.074,5.074,0,0,0-.243,2.674c.231,1.738-.956,1.375-1.929,1.439-1.1.072-1.5-.386-1.252-1.448A3.811,3.811,0,0,0,379.541,581.569Z" transform="translate(-339.777 -540.369)" fill="#189dd6"/>
</svg>
