<svg id="Group_132" data-name="Group 132" xmlns="http://www.w3.org/2000/svg" width="18.759" height="17.702" viewBox="0 0 18.759 17.702">
  <path id="Path_105" data-name="Path 105" d="M81.8,388.112l-16.641,7.254a1.058,1.058,0,0,0-.062,1.911l3.375,1.742,10.053-6.993a.14.14,0,0,1,.221.112l-8.422,8.039a1.06,1.06,0,0,0-.328.766v3.723a1.058,1.058,0,0,0,1.961.552L74,401.872l4.323,2.231a1.059,1.059,0,0,0,1.514-.691l3.413-14.081A1.058,1.058,0,0,0,81.8,388.112Z" transform="translate(-64.523 -388.021)" fill="#fff"/>
</svg>
