<svg xmlns="http://www.w3.org/2000/svg" width="37.771" height="37.496" viewBox="0 0 37.771 37.496">
  <g id="Group_288" data-name="Group 288" transform="translate(-50.046 -81.41)">
    <g id="Group_286" data-name="Group 286">
      <path id="Path_331" data-name="Path 331" d="M87.04,118.906h0a.777.777,0,0,1-.777-.777v-.895a11.651,11.651,0,0,0-11.651-11.651H63.251A11.651,11.651,0,0,0,51.6,117.234v.895a.777.777,0,0,1-.777.777h0a.777.777,0,0,1-.777-.777v-.895a13.2,13.2,0,0,1,13.2-13.205H74.613a13.2,13.2,0,0,1,13.2,13.2v.9A.777.777,0,0,1,87.04,118.906Z" fill="#222"/>
    </g>
    <g id="Group_287" data-name="Group 287">
      <path id="Path_332" data-name="Path 332" d="M68.917,82.965a8.982,8.982,0,1,1-8.982,8.981,8.991,8.991,0,0,1,8.982-8.981m0-1.555A10.536,10.536,0,1,0,79.453,91.946,10.536,10.536,0,0,0,68.917,81.41Z" fill="#222"/>
    </g>
  </g>
</svg>
