<svg id="Group_257" data-name="Group 257" xmlns="http://www.w3.org/2000/svg" width="82.639" height="54.783" viewBox="0 0 82.639 54.783">
  <path id="Path_282" data-name="Path 282" d="M260.194,128.563a64.886,64.886,0,0,1,9.731-.1c3.518.167,6.641.167,8.142-3.922.489-1.331,1.8-2.36,2.962-3.81h-4.084c.34-.9,1.155-.671,1.821-.729,2.2-.191,4.359.319,6.555.307,7.744-.041,15.488-.022,23.232-.014,3.552,0,4.677,1.1,4.685,4.654q.032,14.521,0,29.041c0,2.431-.28,2.7-2.739,2.709-3.77.014-7.541-.021-11.31.017a2.618,2.618,0,0,1-2.808-1.792,6.684,6.684,0,0,0-6.605-4.313,6.894,6.894,0,0,0-6.614,4.352,2.588,2.588,0,0,1-2.709,1.742c-1.221-.037-2.446.046-3.667-.045a2.811,2.811,0,0,1-2.757-2.064,21.251,21.251,0,0,1-.225-9.363,2.757,2.757,0,0,1,2.021-.46c1.929-.03,3.859.031,5.788-.035.6-.02,1.373-.031,1.413-.83.047-.938-.8-.928-1.437-.947-2.335-.066-4.671-.011-7.006-.032a3.758,3.758,0,0,1-2.077-.32,11.2,11.2,0,0,1,.389-4.115c.8-.636,1.743-.385,2.635-.423a10.362,10.362,0,0,0,2.409-.269c.446-.126.914-.271.915-.854,0-.635-.467-.862-.988-.968a16.382,16.382,0,0,0-2.729-.106,3.281,3.281,0,0,1-1.772-.305c-.505-1.51.189-2.8.745-4.121,3.016-.436,6.013-1.283,8.674,1.3,2.8,2.723,5.713,5.342,8.561,8.023.621.585,1.364,1.7,2.258.791.825-.837-.241-1.562-.823-2.116q-5.076-4.835-10.219-9.6a4.859,4.859,0,0,0-3.883-1.007c-5.533.432-11.071.245-16.608.263C261.43,129.112,260.625,129.4,260.194,128.563Z" transform="translate(-258.86 -113.031)" fill="#fee7d8"/>
  <path id="Path_283" data-name="Path 283" d="M289.737,141.336c.063,2.648.065,5.3.209,7.942.117,2.129,1.24,3.085,3.343,3.084.306,0,.613-.04.916-.017,2.217.172,3.9.129,5.028-2.627,1.171-2.866,4.165-3.917,7.331-3.524a7.159,7.159,0,0,1,6.2,4.958,1.5,1.5,0,0,0,1.721,1.206q6.419-.071,12.838,0c1.022.014,1.265-.313,1.261-1.291-.032-10.24-.013-20.481-.026-30.721,0-2.629-1.047-3.634-3.768-3.639q-12.686-.021-25.372,0c-2.228,0-4.461-.347-6.683.083a2.6,2.6,0,0,0-2.695,2.377c-.194,1.008-.463,2.046-1.751,1.8-1.355-.254-1.272-1.364-1.057-2.427a5.81,5.81,0,0,1,5.747-4.715c2.688-.06,5.378-.054,8.067-.078a4.968,4.968,0,0,1,2.367-.46c7.065,0,14.13-.016,21.2.008,4.619.016,7.157,2.578,7.18,7.176.008,1.576.018,3.152,0,4.727-.012,1.09.448,1.562,1.55,1.548,1.88-.024,3.762-.029,5.641.007a4.027,4.027,0,0,1,2.736.739c3.923,1.265,7.127,3.487,8.28,7.586a5.074,5.074,0,0,0,3.72,4.034c2.281.723,3.365,2.711,3.5,5.081a47.911,47.911,0,0,1,.007,5.188c-.191,3.643-2.486,5.711-6.489,5.785-1.286.024-1.989.23-2.528,1.639a7.008,7.008,0,0,1-6.427,4.634c-3.394.24-5.841-1.337-7.495-4.243a3.889,3.889,0,0,0-3.591-1.441c-5.226.065-10.454.076-15.681-.009a1.779,1.779,0,0,0-1.966,1.234,7.894,7.894,0,0,1-4.451,4.355,4.517,4.517,0,0,1-3.266.19,7.692,7.692,0,0,1-7.044-5.376,1.191,1.191,0,0,0-1.336-.907c-1.573-.012-3.154-.022-4.716-.185a5.4,5.4,0,0,1-5-4.751c-.441-2.974-.186-5.985-.317-8.977A2.113,2.113,0,0,1,289.737,141.336Z" transform="translate(-274.654 -109.087)" fill="#fe6801"/>
  <path id="Path_284" data-name="Path 284" d="M272.016,157.623H269.2c-.61-.017-1.219-.039-1.828-.051a5.666,5.666,0,0,1-5.767-5.649A1.817,1.817,0,0,0,260.381,150c-2.682-1.231-4.137-5.163-3.126-8.015a1.886,1.886,0,0,1,1.012-1.074c6.407-.01,12.815.014,19.222-.053a5.377,5.377,0,0,1,4.183,1.662c3.1,3.085,6.341,6.024,9.524,9.022.3.279.605.547.876.848a1.356,1.356,0,0,1,.081,2.035,1.319,1.319,0,0,1-2.028-.064c-1.827-1.695-3.632-3.412-5.448-5.119-1.7-1.6-3.417-3.195-5.108-4.811a1.906,1.906,0,0,0-1.452-.669c-1.93.055-3.862.054-5.793.074a2.912,2.912,0,0,1-2.035.439c-2.691.015-5.382-.012-8.072.019-.531.006-1.208-.131-1.46.529a1.705,1.705,0,0,0,.585,1.78,2.61,2.61,0,0,0,2.089.723c1.98.015,3.96-.005,5.94.011a2.922,2.922,0,0,1,2.035.44c1.373.021,2.746.048,4.12.06,1.024.009,2.03.077,2.057,1.441.026,1.3-.949,1.39-1.907,1.418-1.525.045-3.05.073-4.576.108-.607.64-1.405.444-2.143.472-.858.032-1.717-.013-2.575.018-.486.018-1.1-.116-1.347.445-.287.648.137,1.164.547,1.62a3.519,3.519,0,0,0,2.6,1.033,4.281,4.281,0,0,1,2.358.322c3.1.022,6.193.062,9.288.056,1.062,0,2.044.132,2.036,1.441-.008,1.35-1.057,1.376-2.082,1.375C277.194,157.576,274.6,157.606,272.016,157.623Z" transform="translate(-256.932 -125.375)" fill="#169dd6"/>
  <path id="Path_285" data-name="Path 285" d="M362.122,121.431a48.885,48.885,0,0,0-7.45-.276c-2.9-.006-2.9,0-2.9-2.973,0-1.473.018-2.947-.007-4.42a5.8,5.8,0,0,0-6.085-6c-7.52-.029-15.04-.009-22.56-.013-.557,0-1.114-.038-1.671-.059a23,23,0,0,1,8.938-3.938,26.328,26.328,0,0,1,17.895,1.981C354.977,109.066,359.888,114.1,362.122,121.431Z" transform="translate(-295.055 -103.021)" fill="#fee7d8"/>
  <path id="Path_286" data-name="Path 286" d="M331.916,222.059c3.8-.161,6.433-1.927,7.633-5.609.2-.615.543-.725,1.128-.722,6.14.032,12.281.089,18.421.013,1.6-.02,1.285,1.247,1.774,1.99-1.34.885-2.663,1.8-4.023,2.649a27.323,27.323,0,0,1-24.431,2.006A2.631,2.631,0,0,1,331.916,222.059Z" transform="translate(-301.238 -169.616)" fill="#fee7d8"/>
  <path id="Path_287" data-name="Path 287" d="M275.783,151.983c-2.938.007-5.876.055-8.813,0a3.015,3.015,0,0,1-2.579-3.479c.133-.6.524-.525.91-.523q5.7.021,11.4.058Q276.242,150.013,275.783,151.983Z" transform="translate(-261.308 -129.586)" fill="#fefefe"/>
  <path id="Path_288" data-name="Path 288" d="M281.224,168.842c-1.017.022-2.033.068-3.05.058a3.025,3.025,0,0,1-2.578-1.35,2.515,2.515,0,0,1-.459-2.313c.3-.762,1.164-.349,1.768-.361,1.626-.031,3.253.032,4.88.057C281.5,166.223,282.391,167.68,281.224,168.842Z" transform="translate(-267.616 -139.51)" fill="#fefefe"/>
  <path id="Path_289" data-name="Path 289" d="M406.194,170.431c-4.047-.142-6.843,1.625-8.166,5.488-.389,1.137-1.209.68-1.877.7-.813.027-.6-.675-.6-1.132q-.018-9.925,0-19.85c0-.471-.173-1.168.61-1.148,3.345.084,6.717-.411,10.028.424a2.3,2.3,0,0,1,1.214.591A25.367,25.367,0,0,1,406.194,170.431Z" transform="translate(-338.825 -133.392)" fill="#fee7d8"/>
  <path id="Path_290" data-name="Path 290" d="M421.586,172c-.1-1.788.753-3.389,1-5.121a28.546,28.546,0,0,0,.014-8.69c-.066-.407-.2-.8.194-1.114a8.276,8.276,0,0,1,4.6,6.714,2.958,2.958,0,0,0,2.3,2.912c4.266,1.4,4.241,1.472,4.241,6.045q0,.533,0,1.066c0,3.689-1.085,4.662-4.785,4.421a1.015,1.015,0,0,1-1.057-.822A7.585,7.585,0,0,0,421.586,172Z" transform="translate(-354.217 -134.959)" fill="#fefefe"/>
  <path id="Path_291" data-name="Path 291" d="M320.7,205.19a4.848,4.848,0,0,1,4.9-4.787,4.889,4.889,0,1,1-4.9,4.787Z" transform="translate(-294.614 -160.561)" fill="#fee7d7"/>
  <path id="Path_292" data-name="Path 292" d="M417.479,205.342a4.792,4.792,0,0,1-4.81,4.829,4.876,4.876,0,0,1-4.779-4.7,4.932,4.932,0,0,1,4.911-5.075A4.776,4.776,0,0,1,417.479,205.342Z" transform="translate(-346.123 -160.554)" fill="#fefcfb"/>
  <path id="Path_293" data-name="Path 293" d="M331.365,208.489a2.74,2.74,0,0,1-2.8,2.617,2.682,2.682,0,1,1,2.8-2.617Z" transform="translate(-297.757 -163.717)" fill="#fe6903"/>
  <path id="Path_294" data-name="Path 294" d="M418.428,208.416a2.734,2.734,0,0,1-2.568,2.692,2.677,2.677,0,0,1-.183-5.351A2.726,2.726,0,0,1,418.428,208.416Z" transform="translate(-349.232 -163.724)" fill="#fe6903"/>
</svg>
